<svg width="8" height="14" viewBox="0 0 8 14" fill="none" xmlns="http://www.w3.org/2000/svg">
<path d="M7.37352 13.4779L7.36583 13.4701L7.3578 13.4626L0.517916 7.08982C0.512847 7.08368 0.50906 7.07688 0.506158 7.06871C0.502257 7.05771 0.499357 7.04221 0.500268 7.0226L0.501387 6.99849L0.500181 6.9744C0.499254 6.95588 0.501986 6.9411 0.505713 6.93059C0.508482 6.92279 0.512075 6.91638 0.516825 6.91065L7.35725 0.537356L7.36528 0.52988L7.37297 0.522058C7.40187 0.492655 7.4453 0.492635 7.47424 0.522072C7.50641 0.554788 7.50778 0.610447 7.47828 0.645122L1.05129 6.63419L0.658732 7L1.05131 7.3658L7.47886 13.3549C7.50835 13.3895 7.50698 13.4452 7.47481 13.4779L7.4748 13.4779C7.44587 13.5074 7.40245 13.5074 7.37352 13.4779Z" stroke="#E5DBEB"/>
</svg>
