<svg width="2" height="10" viewBox="0 0 2 10" fill="none" xmlns="http://www.w3.org/2000/svg">
<path d="M0.330531 0.599999H1.68653L1.45853 6.348H0.546531L0.330531 0.599999ZM1.01453 9.072C0.790531 9.072 0.602531 9 0.450531 8.856C0.298531 8.704 0.222531 8.52 0.222531 8.304C0.222531 8.088 0.298531 7.908 0.450531 7.764C0.602531 7.612 0.790531 7.536 1.01453 7.536C1.23853 7.536 1.42253 7.612 1.56653 7.764C1.71053 7.908 1.78253 8.088 1.78253 8.304C1.78253 8.52 1.70653 8.704 1.55453 8.856C1.41053 9 1.23053 9.072 1.01453 9.072Z" fill="white"/>
</svg>
