<svg width="22" height="29" viewBox="0 0 22 29" fill="none" xmlns="http://www.w3.org/2000/svg">
<path d="M19.6342 9.1334C19.5784 8.43531 19.2991 7.79539 18.8523 7.32999C18.4055 6.86459 17.819 6.57372 17.1209 6.57372H15.6409V5.23571C15.6409 3.78134 15.0823 2.47242 14.1608 1.54163C13.2393 0.581745 11.9826 0 10.6143 0C9.21798 0 7.96133 0.581745 7.06772 1.54163C6.14617 2.47242 5.58766 3.78134 5.58766 5.23571V6.57372H4.10761C3.40947 6.57372 2.82303 6.86459 2.37623 7.32999C1.92942 7.79539 1.65016 8.43531 1.59431 9.1334L0.114258 26.3531C0.114258 26.4403 0.114258 26.5276 0.114258 26.5567C0.114258 27.1966 0.365588 27.8074 0.812396 28.2437C1.23128 28.651 1.78979 28.9418 2.37623 29H2.40415C2.48793 29 2.5717 29 2.62756 29H18.601C18.6568 29 18.7406 29 18.8244 29C19.4387 28.9418 19.9972 28.651 20.4161 28.2437C20.8629 27.8074 21.1143 27.1966 21.1143 26.5276C21.1143 26.4694 21.1143 26.4112 21.1143 26.324L19.6342 9.1334ZM7.12357 5.23571C7.12357 4.21765 7.51452 3.31595 8.15681 2.64694C8.7991 1.97793 9.66479 1.57071 10.6422 1.57071C11.6196 1.57071 12.4853 1.97793 13.1276 2.64694C13.7698 3.31595 14.1608 4.21765 14.1608 5.23571V6.57372H7.12357V5.23571ZM19.5504 26.5567C19.5504 26.7894 19.4667 26.993 19.2991 27.1384C19.1315 27.3129 18.8802 27.4293 18.6568 27.4584C18.6568 27.4584 18.6289 27.4584 18.573 27.4584H2.62756C2.5717 27.4584 2.54378 27.4584 2.54378 27.4584H2.51585C2.26452 27.4293 2.04112 27.3129 1.87357 27.1384C1.70601 26.993 1.62224 26.7894 1.62224 26.5567V26.4694L3.10229 9.27884C3.13022 8.95888 3.26984 8.668 3.46532 8.46439C3.63287 8.28987 3.85628 8.17352 4.10761 8.17352H5.58766V11.7222C5.58766 12.1585 5.92277 12.5075 6.34165 12.5075C6.76053 12.5075 7.09564 12.1585 7.09564 11.7222V8.17352H14.077V11.7222C14.077 12.1585 14.4121 12.5075 14.831 12.5075C15.2499 12.5075 15.585 12.1585 15.585 11.7222V8.17352H17.0651C17.3164 8.17352 17.5398 8.28987 17.7073 8.46439C17.9028 8.668 18.0424 8.95888 18.0704 9.27884L19.5504 26.4985V26.5567Z" fill="white"/>
</svg>
