<svg width="22" height="25" viewBox="0 0 22 25" fill="none" xmlns="http://www.w3.org/2000/svg">
<path fill-rule="evenodd" clip-rule="evenodd" d="M19.4126 1.72414H14.2509C13.8436 1.72414 13.5135 2.1101 13.5135 2.58621V8.62069C13.5135 9.0968 13.8436 9.48276 14.2509 9.48276H19.4126C19.8198 9.48276 20.15 9.0968 20.15 8.62069V2.58621C20.15 2.1101 19.8198 1.72414 19.4126 1.72414ZM14.2509 0C13.0291 0 12.0387 1.15788 12.0387 2.58621V8.62069C12.0387 10.049 13.0291 11.2069 14.2509 11.2069H19.4126C20.6343 11.2069 21.6248 10.049 21.6248 8.62069V2.58621C21.6248 1.15788 20.6343 0 19.4126 0H14.2509Z" fill="white"/>
<path fill-rule="evenodd" clip-rule="evenodd" d="M19.4126 15.5171H14.2509C13.8436 15.5171 13.5135 15.9031 13.5135 16.3792V22.4137C13.5135 22.8898 13.8436 23.2757 14.2509 23.2757H19.4126C19.8198 23.2757 20.15 22.8898 20.15 22.4137V16.3792C20.15 15.9031 19.8198 15.5171 19.4126 15.5171ZM14.2509 13.793C13.0291 13.793 12.0387 14.9509 12.0387 16.3792V22.4137C12.0387 23.842 13.0291 24.9999 14.2509 24.9999H19.4126C20.6343 24.9999 21.6248 23.842 21.6248 22.4137V16.3792C21.6248 14.9509 20.6343 13.793 19.4126 13.793H14.2509Z" fill="white"/>
<path fill-rule="evenodd" clip-rule="evenodd" d="M7.61413 15.5171H2.4524C2.04515 15.5171 1.71501 15.9031 1.71501 16.3792V22.4137C1.71501 22.8898 2.04515 23.2757 2.4524 23.2757H7.61413C8.02138 23.2757 8.35152 22.8898 8.35152 22.4137V16.3792C8.35152 15.9031 8.02138 15.5171 7.61413 15.5171ZM2.4524 13.793C1.23066 13.793 0.240234 14.9509 0.240234 16.3792V22.4137C0.240234 23.842 1.23066 24.9999 2.4524 24.9999H7.61413C8.83588 24.9999 9.8263 23.842 9.8263 22.4137V16.3792C9.8263 14.9509 8.83588 13.793 7.61413 13.793H2.4524Z" fill="white"/>
<path fill-rule="evenodd" clip-rule="evenodd" d="M7.61413 1.72414H2.4524C2.04515 1.72414 1.71501 2.1101 1.71501 2.58621V8.62069C1.71501 9.0968 2.04515 9.48276 2.4524 9.48276H7.61413C8.02138 9.48276 8.35152 9.0968 8.35152 8.62069V2.58621C8.35152 2.1101 8.02138 1.72414 7.61413 1.72414ZM2.4524 0C1.23066 0 0.240234 1.15788 0.240234 2.58621V8.62069C0.240234 10.049 1.23066 11.2069 2.4524 11.2069H7.61413C8.83588 11.2069 9.8263 10.049 9.8263 8.62069V2.58621C9.8263 1.15788 8.83588 0 7.61413 0H2.4524Z" fill="white"/>
</svg>
