<svg width="21" height="21" viewBox="0 0 21 21" fill="none" xmlns="http://www.w3.org/2000/svg">
<path d="M10.5549 0.328125C4.93579 0.328125 0.383057 4.88086 0.383057 10.5C0.383057 16.1191 4.93579 20.6719 10.5549 20.6719C16.1741 20.6719 20.7268 16.1191 20.7268 10.5C20.7268 4.88086 16.1741 0.328125 10.5549 0.328125ZM19.4143 10.5C19.4143 15.3686 15.4727 19.3594 10.5549 19.3594C5.68638 19.3594 1.69556 15.4178 1.69556 10.5C1.69556 5.63145 5.63716 1.64062 10.5549 1.64062C15.4235 1.64062 19.4143 5.58223 19.4143 10.5ZM13.3071 14.1217L9.97661 11.7018C9.84946 11.6074 9.77563 11.4598 9.77563 11.3039V4.75781C9.77563 4.48711 9.99712 4.26562 10.2678 4.26562H10.842C11.1127 4.26562 11.3342 4.48711 11.3342 4.75781V10.7584L14.2258 12.8625C14.4473 13.0225 14.4924 13.3301 14.3325 13.5516L13.9961 14.015C13.8362 14.2324 13.5286 14.2816 13.3071 14.1217Z" fill="white"/>
</svg>
