<svg width="22" height="23" viewBox="0 0 22 23" fill="none" xmlns="http://www.w3.org/2000/svg">
<circle opacity="0.1" cx="11" cy="11.9613" r="11" fill="#0E0B10"/>
<path d="M11.8641 11.9512L15.4958 8.31947C15.6202 8.19506 15.6202 7.99389 15.4958 7.86948L15.2708 7.64449C15.1464 7.52008 14.9452 7.52008 14.8208 7.64449L11.1891 11.2762L7.55736 7.64713C7.43295 7.52272 7.23178 7.52272 7.10737 7.64713L6.88237 7.87213C6.75796 7.99654 6.75796 8.19771 6.88237 8.32212L10.5141 11.9512L6.88502 15.5829C6.76061 15.7073 6.76061 15.9085 6.88502 16.0329L7.11001 16.2579C7.23442 16.3823 7.4356 16.3823 7.56001 16.2579L11.1891 12.6262L14.8208 16.2579C14.9452 16.3823 15.1464 16.3823 15.2708 16.2579L15.4958 16.0329C15.6202 15.9085 15.6202 15.7073 15.4958 15.5829L11.8641 11.9512Z" fill="#0E0B10"/>
</svg>
