<svg width="20" height="15" viewBox="0 0 20 15" fill="none" xmlns="http://www.w3.org/2000/svg">
<path d="M18.125 0H1.875C0.839844 0 0 0.808738 0 1.80556V12.6389C0 13.6357 0.839844 14.4444 1.875 14.4444H18.125C19.1602 14.4444 20 13.6357 20 12.6389V1.80556C20 0.808738 19.1602 0 18.125 0ZM1.875 1.2037H18.125C18.4688 1.2037 18.75 1.47454 18.75 1.80556V3.36285C17.8945 4.05874 16.6719 5.01794 12.8672 7.92564C12.207 8.42969 10.9062 9.64468 10 9.62963C9.09375 9.64468 7.78906 8.42969 7.13281 7.92564C3.32813 5.01794 2.10547 4.05874 1.25 3.36285V1.80556C1.25 1.47454 1.53125 1.2037 1.875 1.2037ZM18.125 13.2407H1.875C1.53125 13.2407 1.25 12.9699 1.25 12.6389V4.92766C2.14062 5.63108 3.54687 6.71817 6.35547 8.86603C7.15625 9.48293 8.57031 10.8409 10 10.8333C11.4219 10.8446 12.8242 9.49798 13.6445 8.86603C16.4531 6.71817 17.8594 5.63108 18.75 4.92766V12.6389C18.75 12.9699 18.4688 13.2407 18.125 13.2407Z" fill="#8671F0"/>
</svg>
