<svg width="30" height="29" viewBox="0 0 30 29" fill="none" xmlns="http://www.w3.org/2000/svg">
<path d="M12 27.0834H26.125C26.654 27.0834 27.0833 26.654 27.0833 26.1251V2.87502C27.0833 2.34602 26.654 1.91671 26.125 1.91671H12C11.47 1.91671 11.0417 1.48835 11.0417 0.9584C11.0417 0.42845 11.47 0 12 0H26.125C27.7101 0 29 1.28995 29 2.87502V26.125C29 27.7101 27.7101 29 26.125 29H12C11.47 29 11.0417 28.5716 11.0417 28.0417C11.0417 27.5117 11.47 27.0834 12 27.0834Z" fill="#0E0B10"/>
<path d="M1.21158 14.0259L7.03824 8.2759C7.41391 7.90406 8.02147 7.90888 8.39331 8.2855C8.76515 8.66211 8.76132 9.26873 8.38371 9.64057L4.21978 13.7499H15.3776C15.9076 13.7499 16.3359 14.1782 16.3359 14.7082C16.3359 15.2381 15.9076 15.6665 15.3776 15.6665H4.21978L8.38371 19.7758C8.76127 20.1477 8.76416 20.7543 8.39331 21.1309C8.2055 21.3207 7.95823 21.4165 7.71097 21.4165C7.46754 21.4165 7.22416 21.3245 7.03824 21.1405L1.21158 15.3905C1.02949 15.2103 0.926005 14.965 0.926005 14.7081C0.926005 14.4514 1.02854 14.207 1.21158 14.0259Z" fill="#0E0B10"/>
</svg>
