<svg width="26" height="23" viewBox="0 0 26 23" fill="none" xmlns="http://www.w3.org/2000/svg">
<path d="M12.9989 23C12.6291 23.0003 12.2719 22.867 11.9937 22.6248C10.9438 21.7119 9.9312 20.8532 9.0379 20.0961L9.03342 20.0924C6.72284 18.2601 4.5646 16.2454 2.57968 14.0681C0.821397 11.9569 0.0011638 9.95546 0.0011638 7.76938C-0.0333995 5.73741 0.702999 3.76705 2.06368 2.25079C2.72414 1.53521 3.52807 0.965218 4.42364 0.577577C5.3192 0.189936 6.28652 -0.00675161 7.26321 0.000197137C8.74499 -0.00608284 10.185 0.488344 11.3472 1.40246C11.9773 1.89171 12.5335 2.46833 12.9989 3.11469C13.4641 2.46755 14.0203 1.89017 14.6505 1.40024C15.8131 0.486917 17.253 -0.00671581 18.7345 0.000197137C19.7117 -0.00712101 20.6796 0.189386 21.5757 0.577037C22.4718 0.964688 23.2762 1.53487 23.9371 2.25079C25.2975 3.76716 26.0336 5.73751 25.9988 7.76938C25.9988 9.95546 25.1786 11.9569 23.4211 14.0673C21.4364 16.2447 19.2784 18.2593 16.9681 20.0917C16.0733 20.8495 15.0591 21.7097 14.0063 22.6248C13.7282 22.8667 13.3713 23 13.0019 23H12.9989ZM7.26321 1.51443C6.49696 1.50858 5.73797 1.66248 5.03519 1.9662C4.33241 2.26993 3.70143 2.71674 3.18292 3.27783C2.08191 4.51474 1.48958 6.11856 1.52381 7.77012C1.52381 9.60915 2.21132 11.2554 3.75187 13.1026C5.68258 15.2108 7.7788 17.163 10.0207 18.9408L10.0252 18.9445C10.92 19.7046 11.9385 20.5662 12.9959 21.4858C14.06 20.564 15.0778 19.7009 15.9786 18.94C18.2204 17.1625 20.3166 15.2105 22.2474 13.1026C23.7879 11.2539 24.4754 9.60915 24.4754 7.77012C24.5093 6.11836 23.9164 4.51451 22.8148 3.27783C22.2963 2.71684 21.6653 2.27014 20.9625 1.96654C20.2597 1.66294 19.5007 1.50918 18.7345 1.51518C17.5903 1.51144 16.4788 1.89421 15.5819 2.6008C14.8766 3.16234 14.2809 3.84775 13.8243 4.623C13.7391 4.76511 13.6182 4.88278 13.4735 4.96449C13.3288 5.04621 13.1653 5.08916 12.9989 5.08916C12.8325 5.08916 12.6689 5.04621 12.5242 4.96449C12.3795 4.88278 12.2587 4.76511 12.1734 4.623C11.7169 3.84766 11.1212 3.16223 10.4159 2.6008C9.5191 1.89395 8.40751 1.51091 7.26321 1.51443Z" fill="black"/>
</svg>
