<svg width="29" height="27" viewBox="0 0 29 27" fill="none" xmlns="http://www.w3.org/2000/svg">
<path d="M19.9184 0.749512C18.6076 0.749512 17.3546 1.05002 16.1946 1.64274C15.405 2.04614 14.6796 2.58211 14.0572 3.21801C13.4347 2.58211 12.7094 2.04614 11.9197 1.64274C10.7597 1.05002 9.50684 0.749512 8.19595 0.749512C3.67672 0.749512 0 4.42624 0 8.94553C0 12.1465 1.69052 15.5461 5.02453 19.0501C7.80826 21.9758 11.2164 24.4146 13.5853 25.9454L14.0572 26.2504L14.5291 25.9454C16.898 24.4147 20.3061 21.9758 23.0899 19.0501C26.4239 15.5461 28.1144 12.1465 28.1144 8.94553C28.1144 4.42624 24.4377 0.749512 19.9184 0.749512ZM21.83 17.8514C19.3422 20.4661 16.3117 22.6889 14.0572 24.1766C11.8027 22.6888 8.77221 20.4661 6.28441 17.8514C3.26828 14.6816 1.73903 11.6852 1.73903 8.94553C1.73903 5.38514 4.63563 2.48855 8.19601 2.48855C10.2458 2.48855 12.1288 3.43012 13.362 5.07177L14.0572 5.99722L14.7524 5.07177C15.9856 3.43012 17.8686 2.48855 19.9184 2.48855C23.4788 2.48855 26.3754 5.38514 26.3754 8.94553C26.3754 11.6852 24.846 14.6816 21.83 17.8514Z" fill="white"/>
</svg>
