<svg width="18" height="19" viewBox="0 0 18 19" fill="none" xmlns="http://www.w3.org/2000/svg">
<path d="M8.69343 5.04331C6.22704 5.04331 4.23765 7.03315 4.23765 9.50008C4.23765 11.967 6.22704 13.9569 8.69343 13.9569C11.1598 13.9569 13.1492 11.967 13.1492 9.50008C13.1492 7.03315 11.1598 5.04331 8.69343 5.04331ZM8.69343 12.3976C7.09958 12.3976 5.79659 11.0982 5.79659 9.50008C5.79659 7.90201 7.09571 6.6026 8.69343 6.6026C10.2912 6.6026 11.5903 7.90201 11.5903 9.50008C11.5903 11.0982 10.2873 12.3976 8.69343 12.3976ZM14.3708 4.861C14.3708 5.43895 13.9054 5.90053 13.3315 5.90053C12.7537 5.90053 12.2922 5.43507 12.2922 4.861C12.2922 4.28694 12.7575 3.82148 13.3315 3.82148C13.9054 3.82148 14.3708 4.28694 14.3708 4.861ZM17.3219 5.91604C17.256 4.52354 16.938 3.29008 15.9181 2.27382C14.9021 1.25757 13.6689 0.939504 12.2767 0.869685C10.8418 0.78823 6.54116 0.78823 5.10631 0.869685C3.718 0.935625 2.48481 1.25369 1.4649 2.26994C0.444997 3.2862 0.130881 4.51966 0.0610779 5.91217C-0.0203593 7.34733 -0.0203593 11.649 0.0610779 13.0841C0.127003 14.4766 0.444997 15.7101 1.4649 16.7263C2.48481 17.7426 3.71412 18.0607 5.10631 18.1305C6.54116 18.2119 10.8418 18.2119 12.2767 18.1305C13.6689 18.0645 14.9021 17.7465 15.9181 16.7263C16.9341 15.7101 17.2521 14.4766 17.3219 13.0841C17.4033 11.649 17.4033 7.35121 17.3219 5.91604ZM15.4682 14.624C15.1658 15.3843 14.5802 15.97 13.8162 16.2764C12.6722 16.7302 9.95764 16.6255 8.69343 16.6255C7.42921 16.6255 4.71076 16.7263 3.57064 16.2764C2.81055 15.9739 2.22498 15.3881 1.91862 14.624C1.4649 13.4798 1.56961 10.7646 1.56961 9.50008C1.56961 8.23558 1.46878 5.51652 1.91862 4.37615C2.2211 3.6159 2.80668 3.03019 3.57064 2.72377C4.71464 2.26994 7.42921 2.37467 8.69343 2.37467C9.95764 2.37467 12.6761 2.27382 13.8162 2.72377C14.5763 3.02631 15.1619 3.61202 15.4682 4.37615C15.922 5.5204 15.8173 8.23558 15.8173 9.50008C15.8173 10.7646 15.922 13.4836 15.4682 14.624Z" fill="white"/>
</svg>
