<svg width="29" height="28" viewBox="0 0 29 28" fill="none" xmlns="http://www.w3.org/2000/svg">
<path d="M18.998 0.193096C18.3875 -0.116281 17.654 -0.0499387 17.1091 0.363659L7.96897 7.219H1.95506C0.958832 7.219 0.151123 8.02671 0.151123 9.02294V18.043C0.151123 19.0395 0.958832 19.8472 1.95506 19.8472H7.96897L17.1091 26.7025C17.906 27.3003 19.0369 27.1387 19.6347 26.3417C19.8689 26.0295 19.9955 25.6496 19.9955 25.2592V1.80676C19.9979 1.12276 19.6108 0.496781 18.998 0.193096ZM18.1916 25.2592L8.8104 18.2235C8.65429 18.1063 8.46446 18.043 8.26915 18.043H1.95506V9.02294H8.26915C8.46446 9.02294 8.65429 8.95966 8.8104 8.84252L18.1913 1.80676V25.2592H18.1916Z" fill="white"/>
<path d="M26.6833 13.5331L28.5965 11.6199C28.9425 11.2615 28.9326 10.6905 28.5742 10.3443C28.2247 10.0069 27.6706 10.0069 27.3209 10.3443L25.4077 12.2575L23.4945 10.3443C23.1363 9.99835 22.5653 10.0082 22.2191 10.3666C21.8815 10.7161 21.8815 11.2702 22.2191 11.6199L24.1323 13.5331L22.2191 15.4463C21.8609 15.7922 21.8509 16.3632 22.197 16.7217C22.5432 17.0799 23.1142 17.0899 23.4724 16.7438C23.4801 16.7365 23.4873 16.7291 23.4945 16.7217L25.4077 14.8085L27.3209 16.7217C27.6793 17.0676 28.2504 17.0577 28.5965 16.6993C28.9339 16.3499 28.9339 15.7957 28.5965 15.4463L26.6833 13.5331Z" fill="white"/>
</svg>
