<svg width="21" height="21" viewBox="0 0 21 21" fill="none" xmlns="http://www.w3.org/2000/svg">
<path d="M19.4368 1.44068L15.4993 0.530525C14.9251 0.397713 14.3352 0.694588 14.1008 1.23756L12.2844 5.47584C12.0696 5.97193 12.2141 6.55787 12.6321 6.90162L14.7376 8.62428C13.4094 11.3274 11.2102 13.5305 8.50318 14.8587L6.78053 12.7532C6.43678 12.3352 5.85084 12.1907 5.35474 12.4055L1.12037 14.2219C0.5774 14.4563 0.280525 15.0422 0.413338 15.6165L1.31959 19.5501C1.44849 20.1087 1.94068 20.4993 2.51099 20.4993C12.3626 20.4993 20.3821 12.5227 20.3821 2.62818C20.3821 2.05787 19.9915 1.56568 19.4368 1.44068ZM2.53443 19.2493L1.63599 15.3587L5.83131 13.5618L8.15553 16.4055C12.2024 14.5071 14.3938 12.3079 16.2844 8.27662L13.4407 5.9524L15.2376 1.75709L19.1282 2.65553C19.1204 11.8157 11.6946 19.2376 2.53443 19.2493Z" fill="white"/>
</svg>
