<svg width="15" height="20" viewBox="0 0 15 20" fill="none" xmlns="http://www.w3.org/2000/svg">
<path d="M7.36842 3.75C5.33692 3.75 3.68421 5.43223 3.68421 7.5C3.68421 9.56778 5.33692 11.25 7.36842 11.25C9.39992 11.25 11.0526 9.56778 11.0526 7.5C11.0526 5.43223 9.39992 3.75 7.36842 3.75ZM7.36842 10C6.01409 10 4.91228 8.87852 4.91228 7.5C4.91228 6.12149 6.01409 5 7.36842 5C8.72275 5 9.82456 6.12149 9.82456 7.5C9.82456 8.87852 8.72275 10 7.36842 10ZM7.36842 0C3.29894 0 0 3.35785 0 7.5C0 10.524 1.03503 11.3684 6.61116 19.5965C6.97705 20.1345 7.75975 20.1345 8.12572 19.5965C13.7018 11.3684 14.7368 10.524 14.7368 7.5C14.7368 3.35785 11.4379 0 7.36842 0ZM7.36842 18.5129C2.02267 10.6441 1.22807 10.0193 1.22807 7.5C1.22807 5.83055 1.86678 4.26106 3.02654 3.08059C4.1863 1.90012 5.72826 1.25 7.36842 1.25C9.00858 1.25 10.5505 1.90012 11.7103 3.08059C12.8701 4.26106 13.5088 5.83055 13.5088 7.5C13.5088 10.0191 12.7147 10.6434 7.36842 18.5129Z" fill="#8671F0"/>
</svg>
