<svg width="178" height="178" viewBox="0 0 178 178" fill="none" xmlns="http://www.w3.org/2000/svg">
<path d="M89 178C39.9224 178 0 138.074 0 89C0 39.9262 39.9224 0 89 0C138.078 0 178 39.9262 178 89C178 138.074 138.078 178 89 178ZM89 7.41655C44.0147 7.41655 7.41655 44.0147 7.41655 89C7.41655 133.985 44.0147 170.583 89 170.583C133.985 170.583 170.583 133.985 170.583 89C170.583 44.0147 133.985 7.41655 89 7.41655Z" fill="white"/>
<path d="M124.381 92.1179L72.4648 125.493C71.3276 126.235 69.8574 126.275 68.684 125.631C67.4888 124.979 66.75 123.733 66.75 122.375V55.6248C66.75 54.2668 67.4888 53.0208 68.684 52.369C69.2344 52.0682 69.8501 51.9163 70.4585 51.9163C71.1538 51.9163 71.8564 52.112 72.4648 52.5066L124.381 85.8816C125.439 86.5623 126.083 87.7395 126.083 88.9997C126.083 90.26 125.439 91.4368 124.381 92.1179ZM74.1665 62.4186V115.581L115.516 88.9997L74.1665 62.4186Z" fill="white"/>
</svg>
