<svg width="16" height="15" viewBox="0 0 16 15" fill="none" xmlns="http://www.w3.org/2000/svg">
<path d="M15.825 13.9881L11.1768 9.34023C11.1217 9.2852 11.0564 9.24155 10.9845 9.21177C10.9126 9.18199 10.8356 9.16667 10.7578 9.16667C10.6799 9.16667 10.6029 9.18199 10.531 9.21177C10.4591 9.24155 10.3938 9.2852 10.3388 9.34023C10.2837 9.39525 10.2401 9.46057 10.2103 9.53246C10.1805 9.60435 10.1652 9.68141 10.1652 9.75923C10.1652 9.83704 10.1805 9.91411 10.2103 9.986C10.2401 10.0579 10.2837 10.1232 10.3388 10.1782L14.987 14.8264C15.0981 14.9376 15.2488 15 15.406 15C15.5631 15 15.7138 14.9376 15.825 14.8264C15.9361 14.7153 15.9985 14.5646 15.9985 14.4074C15.9985 14.2503 15.9361 14.0992 15.825 13.9881Z" fill="white"/>
<path d="M6.83324 1.587e-07C5.67945 -0.000268914 4.5515 0.341621 3.59204 0.982433C2.63257 1.62324 1.88468 2.53419 1.44296 3.60007C1.00124 4.66595 0.885531 5.83888 1.11046 6.97053C1.33538 8.10217 1.89085 9.1417 2.7066 9.95764C3.52235 10.7736 4.56175 11.3293 5.69335 11.5545C6.82494 11.7797 7.9979 11.6642 9.06388 11.2228C10.1299 10.7813 11.041 10.0336 11.682 9.0743C12.3231 8.11499 12.6652 6.98712 12.6652 5.83333C12.6635 4.287 12.0486 2.80447 10.9553 1.71091C9.86196 0.61736 8.37957 0.00207048 6.83324 1.587e-07ZM6.83324 10.5896C5.89254 10.5896 4.97297 10.3106 4.1908 9.78801C3.40864 9.26539 2.79902 8.52256 2.43903 7.65347C2.07904 6.78438 1.98485 5.82806 2.16837 4.90544C2.3519 3.98281 2.80488 3.13533 3.47006 2.47016C4.13523 1.80499 4.98271 1.352 5.90534 1.16848C6.82796 0.984955 7.78428 1.07914 8.65337 1.43913C9.52247 1.79912 10.2653 2.40874 10.7879 3.1909C11.3105 3.97307 11.5895 4.89264 11.5895 5.83333C11.5881 7.09436 11.0866 8.30334 10.1949 9.19502C9.30324 10.0867 8.09426 10.5882 6.83324 10.5896Z" fill="white"/>
</svg>
