<svg width="6" height="6" viewBox="0 0 6 6" fill="none" xmlns="http://www.w3.org/2000/svg">
<path d="M2.53978 3L0.0636187 0.523838C-0.0212064 0.439013 -0.0212064 0.30185 0.0636187 0.217025L0.217025 0.0636186C0.30185 -0.0212062 0.439013 -0.0212062 0.523838 0.0636186L3 2.53978L5.47616 0.0654233C5.56099 -0.0194014 5.69815 -0.0194014 5.78297 0.0654233L5.93638 0.21883C6.02121 0.303655 6.02121 0.440818 5.93638 0.525643L3.46022 3L5.93458 5.47616C6.0194 5.56099 6.0194 5.69815 5.93458 5.78298L5.78117 5.93638C5.69635 6.02121 5.55918 6.02121 5.47436 5.93638L3 3.46022L0.523838 5.93638C0.439013 6.02121 0.30185 6.02121 0.217025 5.93638L0.0636187 5.78298C-0.0212064 5.69815 -0.0212064 5.56099 0.0636187 5.47616L2.53978 3Z" fill="white"/>
</svg>
