<svg width="26" height="25" viewBox="0 0 26 25" fill="none" xmlns="http://www.w3.org/2000/svg">
<path fill-rule="evenodd" clip-rule="evenodd" d="M16.5947 12.5157C18.5347 11.3192 19.825 9.19364 19.825 6.77083C19.825 3.03141 16.7511 0 12.9594 0C9.1676 0 6.09375 3.03141 6.09375 6.77083C6.09375 9.20436 7.39556 11.338 9.34984 12.5315C3.94701 14.0872 0 19.0089 0 24.8397C0 24.8932 0.000337219 24.9467 0.000991821 25H1.7074C1.70663 24.9467 1.70625 24.8932 1.70625 24.8397C1.70625 18.6885 6.76263 13.7019 13 13.7019C19.2374 13.7019 24.2937 18.6885 24.2937 24.8397C24.2937 24.8932 24.2934 24.9467 24.2926 25H25.999C25.9997 24.9467 26 24.8932 26 24.8397C26 18.989 22.026 14.0536 16.5947 12.5157ZM18.1187 6.77083C18.1187 9.58094 15.8088 11.859 12.9594 11.859C10.1099 11.859 7.8 9.58094 7.8 6.77083C7.8 3.96073 10.1099 1.68269 12.9594 1.68269C15.8088 1.68269 18.1187 3.96073 18.1187 6.77083Z" fill="white"/>
</svg>
