<svg width="46" height="46" viewBox="0 0 46 46" fill="none" xmlns="http://www.w3.org/2000/svg">
<path d="M43.2903 27.4484C43.5835 26.0266 43.7654 24.5133 43.7654 23C43.7654 11.4727 34.4749 2.14922 23.0107 2.14922C21.5044 2.14922 20.0082 2.32188 18.5828 2.62656C16.662 1.13359 14.2762 0.25 11.678 0.25C5.43041 0.25 0.355469 5.34844 0.355469 11.625C0.355469 14.2352 1.23499 16.632 2.71097 18.5516C2.4178 19.9734 2.23583 21.4867 2.23583 23C2.23583 34.5273 11.5264 43.8508 22.9905 43.8508C24.4968 43.8508 25.993 43.6781 27.4185 43.3734C29.3393 44.8562 31.7251 45.7398 34.3131 45.7398C40.5607 45.7398 45.6357 40.6414 45.6357 34.3648C45.6458 31.7648 44.7663 29.368 43.2903 27.4484ZM23.6173 36.7414C16.9855 36.7414 11.4354 33.7758 11.4354 30.1398C11.4354 28.5148 12.3453 27.032 14.4177 27.032C17.5719 27.032 17.865 31.5922 23.3241 31.5922C25.9223 31.5922 27.6004 30.4344 27.6004 28.9211C27.6004 27.0219 25.9829 26.7273 23.3545 26.0773C17.0361 24.5133 11.4455 23.843 11.4455 17.2211C11.4455 11.2086 17.3697 8.98437 22.4749 8.98437C28.0452 8.98437 33.6762 11.2086 33.6762 14.6109C33.6762 16.3273 32.5237 17.8406 30.613 17.8406C27.7521 17.8406 27.6611 14.4383 23.031 14.4383C20.4328 14.4383 18.785 15.1492 18.785 16.7234C18.785 18.7344 20.8878 18.9375 25.7706 20.075C29.9559 21.0195 34.9399 22.7969 34.9399 27.9562C34.9399 33.9586 29.1674 36.7414 23.6173 36.7414Z" fill="#8671F0"/>
</svg>
